<?xml version="1.0" encoding="utf-8"?>
<!-- Generator: Adobe Illustrator 19.0.0, SVG Export Plug-In . SVG Version: 6.00 Build 0)  -->
<svg version="1.1" id="reload_set_02" xmlns="http://www.w3.org/2000/svg" xmlns:xlink="http://www.w3.org/1999/xlink" x="0px"
	 y="0px" viewBox="-156 372.9 39.9 31.9" style="enable-background:new -156 372.9 39.9 31.9;" xml:space="preserve">
<style type="text/css">
	.st0{fill:#FFFFFF;}
</style>
<path class="st0" d="M-136,400.9c-6.6,0-12-5.4-12-12h4l-6-6l-6,6h4c0,8.8,7.2,16,16,16c4.9,0,9.3-2.2,12.3-5.7l-2.8-2.8
	C-128.8,399.1-132.2,400.9-136,400.9z M-120,388.9c0-8.8-7.2-16-16-16c-4.9,0-9.3,2.2-12.3,5.7l2.8,2.8c2.2-2.8,5.6-4.6,9.4-4.6
	c6.6,0,12,5.4,12,12h-4l6,6l6-6h-3.9V388.9z"/>
</svg>
