<?xml version="1.0" encoding="utf-8"?>
<!-- Generator: Adobe Illustrator 16.2.0, SVG Export Plug-In . SVG Version: 6.00 Build 0)  -->
<!DOCTYPE svg PUBLIC "-//W3C//DTD SVG 1.1//EN" "http://www.w3.org/Graphics/SVG/1.1/DTD/svg11.dtd">
<svg version="1.1" id="Слой_1" xmlns="http://www.w3.org/2000/svg" xmlns:xlink="http://www.w3.org/1999/xlink" x="0px" y="0px"
	 width="99.999px" height="100px" viewBox="0 0 99.999 100" enable-background="new 0 0 99.999 100" xml:space="preserve">
<g>
	<defs>
		<rect id="SVGID_1_" width="99.999" height="100"/>
	</defs>
	<clipPath id="SVGID_2_">
		<use xlink:href="#SVGID_1_"  overflow="visible"/>
	</clipPath>
	<path clip-path="url(#SVGID_2_)" fill="#FFFFFF" d="M50,0C22.386,0,0.002,22.386,0,50c0,27.612,22.386,50,49.998,50
		c27.617,0,50.001-22.384,50.001-50.001C100.001,22.386,77.615,0,50,0 M59.449,71.162l-1.229,5.244
		c-0.072,0.313-0.321,0.641-0.553,0.734c-0.23,0.094-0.419,0.169-0.419,0.169c-2.331,0.937-4.156,1.575-5.58,1.95
		c-1.502,0.396-2.772,0.588-3.881,0.588c-2.432,0-4.33-0.69-5.643-2.053c-1.291-1.342-1.949-3.01-1.949-4.959
		c0-0.654,0.059-1.338,0.17-2.033c0.104-0.649,0.266-1.445,0.5-2.43L44.732,52.8c0.182-0.804,0.368-1.706,0.543-2.646
		c0.162-0.868,0.244-1.597,0.244-2.169c0-0.39-0.021-0.69-0.05-0.916c-0.041-0.318-0.375-0.65-0.692-0.692
		c-0.232-0.03-0.541-0.053-0.947-0.053c-0.289,0-0.838,0.039-1.807,0.225c-0.843,0.162-1.486,0.301-1.908,0.412l-2.24,0.591
		c-0.311,0.082-0.502-0.105-0.428-0.417l1.141-4.869c0.072-0.312,0.308-0.643,0.525-0.741c0.217-0.097,0.393-0.176,0.393-0.176
		c1.969-0.884,3.773-1.555,5.367-1.992c1.68-0.461,3.002-0.684,4.043-0.684c2.487,0,4.375,0.663,5.614,1.972
		c1.213,1.281,1.829,2.978,1.829,5.04c0,0.513-0.053,1.172-0.16,2.014c-0.107,0.83-0.269,1.665-0.479,2.483l-3.883,15.541
		c-0.234,0.927-0.441,1.839-0.616,2.717c-0.159,0.798-0.238,1.441-0.238,1.912c0,1.04,0.215,1.445,0.297,1.514
		c0.104,0.086,0.55,0.369,1.896,0.369c0.261,0,0.773-0.03,1.741-0.166c0.916-0.131,1.39-0.262,1.625-0.348l2.494-0.922
		C59.337,70.687,59.521,70.85,59.449,71.162 M59.703,31.377c-1.225,1.406-2.843,2.151-4.678,2.151c-1.722,0-3.279-0.708-4.502-2.047
		c-1.201-1.313-1.811-2.846-1.811-4.557c0-1.777,0.607-3.351,1.803-4.676c1.225-1.356,2.784-2.074,4.51-2.074
		c1.885,0,3.456,0.66,4.673,1.96c1.185,1.268,1.785,2.768,1.785,4.462C61.483,28.41,60.885,30.018,59.703,31.377"/>
</g>
</svg>
