<?xml version="1.0" encoding="utf-8"?>
<!-- Generator: Adobe Illustrator 19.0.0, SVG Export Plug-In . SVG Version: 6.00 Build 0)  -->
<svg version="1.1" id="Layer_1" xmlns="http://www.w3.org/2000/svg" xmlns:xlink="http://www.w3.org/1999/xlink" x="0px" y="0px"
	 viewBox="249 339.9 94.5 125.8" style="enable-background:new 249 339.9 94.5 125.8;" xml:space="preserve">
<style type="text/css">
	.st0{fill:url(#SVGID_1_);}
	.st1{fill:url(#SVGID_2_);}
	.st2{fill:url(#SVGID_3_);}
	.st3{opacity:0.59;fill:#FFFFFF;enable-background:new    ;}
	.st4{fill:url(#SVGID_4_);}
	.st5{fill:url(#SVGID_5_);}
	.st6{fill:url(#SVGID_6_);}
	.st7{fill:url(#SVGID_7_);}
	.st8{fill:url(#SVGID_8_);}
	.st9{fill:url(#SVGID_9_);}
	.st10{opacity:0.58;fill:url(#SVGID_10_);enable-background:new    ;}
	.st11{fill:url(#SVGID_11_);}
	.st12{opacity:0.58;fill:url(#SVGID_12_);enable-background:new    ;}
	.st13{opacity:0.55;fill:#FFFDF3;enable-background:new    ;}
	.st14{fill:url(#SVGID_13_);}
	.st15{opacity:0.32;fill:url(#SVGID_14_);enable-background:new    ;}
	.st16{fill:url(#SVGID_15_);}
</style>
<g>
	<g>
		
			<linearGradient id="SVGID_1_" gradientUnits="userSpaceOnUse" x1="258.9399" y1="394.9602" x2="346.8532" y2="472.9585" gradientTransform="matrix(1 0 0 -1 0 841.87)">
			<stop  offset="0" style="stop-color:#FFB547"/>
			<stop  offset="0.4839" style="stop-color:#FFCE00"/>
			<stop  offset="1" style="stop-color:#FCE444"/>
		</linearGradient>
		<path class="st0" d="M340.3,341.3C340.3,341.3,340.2,341.3,340.3,341.3C340.2,341.4,340.2,341.4,340.3,341.3
			c-8.8,4-36,12.9-28.1,14.2c1.9,0.3,5,0.7,8.3,1.1c5.7,0.7,12.3,1.6,15.6,2.8c0,0,0,0,0.1,0c0.4,0.1,0.7,0.2,1.1,0.5l0,0
			c0.5,0.3,0.8,0.5,0.9,0.8l0,0c0.2,0.6-0.6,1.3-2.8,2.1c-4.5,1.6-12.4,5.3-20.9,10.4l0,0c-5.1,3.1-10.4,6.6-15.2,10.5
			c-7.8,6.2-14.6,13.1-18.1,20.1l0,0c-4,6-6.3,13.4-6.3,21.3c0,13,6.3,24.5,15.7,31c5.2,3.6,11.4,5.7,18,5.7c4.5,0,8.9-1,12.8-2.7
			c-6.8,3.5-14.5,5.4-22.7,5.4c-26.9,0-48.7-21-48.7-46.9c0-11,3.9-21.1,10.5-29.1l0,0c0.2-0.2,1.2-1.7,3.7-4
			c0.2-0.2,0.4-0.3,0.6-0.5c1.5-1.4,3.2-2.8,4.9-4c0.1,0,0.1-0.1,0.2-0.1c4.1-3.1,9.9-6.9,17.9-11c0.9-0.5,1.8-0.9,2.8-1.4
			c3.3-1.6,6.8-3.3,10.8-5c6.4-2.5-5.9-2.3-16.9-1.7c-2.2,0.1-3.3-0.2-3.2-0.9c0-0.1,0-0.2,0-0.2
			C282.5,356.9,301.3,348.8,340.3,341.3z"/>
		
			<linearGradient id="SVGID_2_" gradientUnits="userSpaceOnUse" x1="277.7454" y1="389.2231" x2="364.9977" y2="470.5263" gradientTransform="matrix(1 0 0 -1 0 841.87)">
			<stop  offset="0" style="stop-color:#D4451D"/>
			<stop  offset="1.268909e-002" style="stop-color:#D64B20"/>
			<stop  offset="9.599930e-002" style="stop-color:#E36F2F"/>
			<stop  offset="0.1802" style="stop-color:#EC8A3B"/>
			<stop  offset="0.2647" style="stop-color:#F39E43"/>
			<stop  offset="0.3495" style="stop-color:#F8AA48"/>
			<stop  offset="0.4355" style="stop-color:#F9AE4A"/>
			<stop  offset="1" style="stop-color:#D4451D"/>
		</linearGradient>
		<path class="st1" d="M342.3,425.1c0,11.4-4.8,21.6-12.3,28.3c0,0,0,0-0.1,0.1c-2.6,2.3-5.5,4.2-8.6,5.6c-4,1.8-8.3,2.7-12.8,2.7
			c-6.6,0-12.8-2.1-18-5.7c-9.5-6.5-15.7-17.9-15.7-31c0-8,2.3-15.3,6.3-21.3l0,0c3.5-7,10.3-13.9,18.1-20.1
			c4.9-3.9,10.2-7.4,15.2-10.5l0,0c8.5-5.1,16.3-8.9,20.9-10.4c2.3-0.8,3.1-1.5,2.8-2.1c1.2,1.5,1.1,3.8-3,5.7
			c-6.1,2.8-11.5,5.7-16.3,8.5l0,0c-5.9,3.5-10.8,7-15,10.3c-2.3,1.8-4.3,3.5-6.1,5.2l0,0c-11.1,10.2-14.5,18-14.7,18.4l0,0
			c-2.7,5.1-4.4,10.7-4.4,16.2c0,13.9,8.1,25.8,19.4,30.4c3.3,1.3,6.9,2.1,10.6,2.1c16.6,0,30-14.6,30-32.5c0-12.4-4.7-25-13-31.7
			C335.6,399.8,342.3,411.6,342.3,425.1z"/>
		
			<linearGradient id="SVGID_3_" gradientUnits="userSpaceOnUse" x1="315.7037" y1="432.5218" x2="342.3641" y2="421.0644" gradientTransform="matrix(1 0 0 -1 0 841.87)">
			<stop  offset="5.376345e-003" style="stop-color:#FFFFFF;stop-opacity:0"/>
			<stop  offset="1" style="stop-color:#EE7700"/>
		</linearGradient>
		<path class="st2" d="M342.3,425.1c0,11.4-4.8,21.6-12.3,28.3c0,0,0,0-0.1,0.1c-2.6,2.3-5.5,4.2-8.6,5.6c-4,1.8-8.3,2.7-12.8,2.7
			c-6.6,0-12.8-2.1-18-5.7c-9.5-6.5-15.7-17.9-15.7-31c0-8,2.3-15.3,6.3-21.3l0,0c3.5-7,10.3-13.9,18.1-20.1
			c4.9-3.9,10.2-7.4,15.2-10.5l0,0c8.5-5.1,16.3-8.9,20.9-10.4c2.3-0.8,3.1-1.5,2.8-2.1c1.2,1.5,1.1,3.8-3,5.7
			c-6.1,2.8-11.5,5.7-16.3,8.5l0,0c-5.9,3.5-10.8,7-15,10.3c-2.3,1.8-4.3,3.5-6.1,5.2l0,0c-11.1,10.2-14.5,18-14.7,18.4l0,0
			c-2.7,5.1-4.4,10.7-4.4,16.2c0,13.9,8.1,25.8,19.4,30.4c3.3,1.3,6.9,2.1,10.6,2.1c16.6,0,30-14.6,30-32.5c0-12.4-4.7-25-13-31.7
			C335.6,399.8,342.3,411.6,342.3,425.1z"/>
		<path class="st3" d="M323.1,368.4c0.4-0.2,0.8-0.4,1.2-0.6v4.1c-0.4,0.2-0.8,0.4-1.2,0.7V368.4z"/>
		<path class="st3" d="M330.6,364.8v3.9c-0.8,0.4-1.6,0.8-2.4,1.2v-4C329,365.5,329.8,365.1,330.6,364.8z"/>
		<path class="st3" d="M336.8,362.3v3.2c-0.5,0.3-1,0.6-1.7,0.9c-1.1,0.5-2.2,1-3.2,1.5v-3.8c1.3-0.5,2.4-1,3.4-1.3
			C335.9,362.7,336.4,362.5,336.8,362.3z"/>
		
			<linearGradient id="SVGID_4_" gradientUnits="userSpaceOnUse" x1="314.1964" y1="416.3658" x2="341.1636" y2="404.7766" gradientTransform="matrix(1 0 0 -1 0 841.87)">
			<stop  offset="0" style="stop-color:#FFFFFF;stop-opacity:0.6"/>
			<stop  offset="1" style="stop-color:#FFB547"/>
		</linearGradient>
		<path class="st4" d="M342.3,427.2c0,18-13.4,32.5-30,32.5c-0.4,0-0.8,0-1.2,0c16.1-0.6,28.9-14.9,28.9-32.5c0-12.4-4.7-25-13-31.7
			c3.9,2.4,7.2,5.7,9.9,9.6C340.5,411.5,342.3,419.4,342.3,427.2z"/>
		
			<linearGradient id="SVGID_5_" gradientUnits="userSpaceOnUse" x1="295.9843" y1="408.1337" x2="341.9239" y2="436.2263" gradientTransform="matrix(1 0 0 -1 0 841.87)">
			<stop  offset="0" style="stop-color:#EE7700"/>
			<stop  offset="0.4839" style="stop-color:#FFCE00"/>
			<stop  offset="1" style="stop-color:#FCE444"/>
		</linearGradient>
		<path class="st5" d="M338.5,425.1c0,18-13.4,32.5-30,32.5c-3.7,0-7.3-0.7-10.6-2.1c15.8-3.1,27.7-18.1,27.7-36.1
			c0-12.9-6.1-24.2-15.4-30.7c0.6-0.1,1.2-0.1,1.8-0.1c4.8,0.6,9.4,2.2,13.4,4.8C333.9,400.1,338.5,412.7,338.5,425.1z"/>
		
			<linearGradient id="SVGID_6_" gradientUnits="userSpaceOnUse" x1="319.5432" y1="423.0276" x2="291.5608" y2="392.8418" gradientTransform="matrix(1 0 0 -1 0 841.87)">
			<stop  offset="5.376345e-003" style="stop-color:#FFFFFF;stop-opacity:0"/>
			<stop  offset="1" style="stop-color:#A32A29"/>
		</linearGradient>
		<path class="st6" d="M338.5,425.1c0,18-13.4,32.5-30,32.5c-3.7,0-7.3-0.7-10.6-2.1c15.8-3.1,27.7-18.1,27.7-36.1
			c0-12.9-6.1-24.2-15.4-30.7c0.6-0.1,1.2-0.1,1.8-0.1c4.8,0.6,9.4,2.2,13.4,4.8C333.9,400.1,338.5,412.7,338.5,425.1z"/>
		
			<linearGradient id="SVGID_7_" gradientUnits="userSpaceOnUse" x1="326.5168" y1="431.713" x2="318.8051" y2="452.6448" gradientTransform="matrix(1 0 0 -1 0 841.87)">
			<stop  offset="5.376345e-003" style="stop-color:#FFFFFF;stop-opacity:0"/>
			<stop  offset="1" style="stop-color:#A32A29"/>
		</linearGradient>
		<path class="st7" d="M329.5,396.8c-2.3,1.6-4.6,3.3-6.8,5c-0.2,0.1-0.4,0.3-0.6,0.4c-2.7-5.5-6.6-10.1-11.4-13.5
			c0.6-0.1,1.2-0.1,1.8-0.1c4.8,0.6,9.4,2.2,13.4,4.8C327.2,394.4,328.4,395.6,329.5,396.8z"/>
		
			<linearGradient id="SVGID_8_" gradientUnits="userSpaceOnUse" x1="259.9172" y1="386.1122" x2="310.4875" y2="510.3067" gradientTransform="matrix(1 0 0 -1 0 841.87)">
			<stop  offset="0" style="stop-color:#FFB547"/>
			<stop  offset="1" style="stop-color:#FFCE00"/>
		</linearGradient>
		<path class="st8" d="M281.1,403.8C281.1,403.8,281,403.8,281.1,403.8"/>
		
			<linearGradient id="SVGID_9_" gradientUnits="userSpaceOnUse" x1="300.3064" y1="477.2251" x2="279.8153" y2="477.5556" gradientTransform="matrix(1 0 0 -1 0 841.87)">
			<stop  offset="0" style="stop-color:#C24D00"/>
			<stop  offset="0.1907" style="stop-color:#D56F1A"/>
			<stop  offset="0.3905" style="stop-color:#E58A2F"/>
			<stop  offset="0.5921" style="stop-color:#F09E3E"/>
			<stop  offset="0.7948" style="stop-color:#F7AA47"/>
			<stop  offset="1" style="stop-color:#F9AE4A"/>
		</linearGradient>
		<path class="st9" d="M301.3,362.5c-3.9,1.7-7.5,3.4-10.8,5c-1,0.5-1.9,0.9-2.8,1.4c1.9-1.3,2.7-3.1-3.9-4.1
			c-3.6-0.5-2.7-4.1-2.5-4.9c-0.2,0.7,0.9,1.1,3.2,0.9C295.3,360.2,307.7,359.9,301.3,362.5z"/>
		
			<linearGradient id="SVGID_10_" gradientUnits="userSpaceOnUse" x1="289.9136" y1="479.226" x2="299.3376" y2="475.1872" gradientTransform="matrix(1 0 0 -1 0 841.87)">
			<stop  offset="5.376345e-003" style="stop-color:#FFFFFF;stop-opacity:0"/>
			<stop  offset="1" style="stop-color:#A32A29"/>
		</linearGradient>
		<path class="st10" d="M301.3,362.5c-3.9,1.7-7.5,3.4-10.8,5c-1,0.5-1.9,0.9-2.8,1.4c1.9-1.3,2.7-3.1-3.9-4.1
			c-3.6-0.5-2.7-4.1-2.5-4.9c-0.2,0.7,0.9,1.1,3.2,0.9C295.3,360.2,307.7,359.9,301.3,362.5z"/>
		
			<linearGradient id="SVGID_11_" gradientUnits="userSpaceOnUse" x1="311.8956" y1="484.2587" x2="333.268" y2="497.0381" gradientTransform="matrix(1 0 0 -1 0 841.87)">
			<stop  offset="0" style="stop-color:#C24D00"/>
			<stop  offset="0.1907" style="stop-color:#D56F1A"/>
			<stop  offset="0.3905" style="stop-color:#E58A2F"/>
			<stop  offset="0.5921" style="stop-color:#F09E3E"/>
			<stop  offset="0.7948" style="stop-color:#F7AA47"/>
			<stop  offset="1" style="stop-color:#F9AE4A"/>
		</linearGradient>
		<path class="st11" d="M340.2,341.4c-1.3,0.7-15.3,8.4-19.7,15.3c-3.3-0.4-6.4-0.8-8.3-1.1C304.3,354.2,331.5,345.4,340.2,341.4z"
			/>
		
			<linearGradient id="SVGID_12_" gradientUnits="userSpaceOnUse" x1="313.0334" y1="484.9391" x2="323.2261" y2="491.0336" gradientTransform="matrix(1 0 0 -1 0 841.87)">
			<stop  offset="0" style="stop-color:#A32A29"/>
			<stop  offset="0.9946" style="stop-color:#FFFFFF;stop-opacity:0"/>
		</linearGradient>
		<path class="st12" d="M340.2,341.4c-1.3,0.7-15.3,8.4-19.7,15.3c-3.3-0.4-6.4-0.8-8.3-1.1C304.3,354.2,331.5,345.4,340.2,341.4z"
			/>
		<path class="st13" d="M330,362.8c-4.5,1.6-12.4,5.3-20.9,10.4l0,0c-5.1,3.1-10.4,6.6-15.2,10.5c-3.5,2.8-6.8,5.7-9.7,8.7
			c4-6.4,11.7-12.7,20.5-18.3c5.6-3.5,11.6-6.8,17.3-9.5l0,0c3.5-1.7,6.9-3.2,10.1-4.6c0.4,0.2,0.6,0.5,0.7,0.7l0,0
			C333.1,361.3,332.3,362,330,362.8z"/>
		
			<linearGradient id="SVGID_13_" gradientUnits="userSpaceOnUse" x1="310.8882" y1="490.983" x2="293.4818" y2="501.5591" gradientTransform="matrix(1 0 0 -1 0 841.87)">
			<stop  offset="0" style="stop-color:#FFB547;stop-opacity:0.6"/>
			<stop  offset="1" style="stop-color:#FFB547"/>
		</linearGradient>
		<path class="st14" d="M340.3,341.3C340.3,341.3,340.2,341.3,340.3,341.3C340.2,341.4,340.2,341.4,340.3,341.3
			c-3.3,1.5-8.9,3.6-14.4,5.8c-21.4,5.5-32.1,10.5-33,12.7c0,0,0,0.1,0,0.2c0,0.2,0,0.4,0.2,0.5c-2.7,0.1-5.7,0.2-8.6,0.4
			c-2.2,0.1-3.3-0.2-3.2-0.9c0-0.1,0-0.2,0-0.2C282.5,356.9,301.3,348.8,340.3,341.3z"/>
		
			<linearGradient id="SVGID_14_" gradientUnits="userSpaceOnUse" x1="276.764" y1="408.3255" x2="343.5252" y2="510.7809" gradientTransform="matrix(1 0 0 -1 0 841.87)">
			<stop  offset="0" style="stop-color:#FFFFFF"/>
			<stop  offset="1" style="stop-color:#FFEDD4"/>
		</linearGradient>
		<path class="st15" d="M309,362.5c-3.9,1.7-7.5,3.4-10.8,5c-1,0.5-1.9,0.9-2.8,1.4c-7.9,4.1-13.7,7.9-17.9,11
			c-0.1,0-0.1,0.1-0.2,0.1c-1.7,1.2-3.3,2.6-4.9,4c-0.2,0.2-0.4,0.4-0.6,0.5c-2.5,2.3-3.5,3.7-3.7,4l0,0c-6.6,8-10.5,18.1-10.5,29.1
			c0,24,18.7,43.8,42.9,46.5c-0.9,0.1-1.7,0.2-2.6,0.2c-25.4-1.6-45.5-21.9-45.5-46.8c0-11,3.9-21.1,10.5-29.1l0,0
			c0.2-0.2,1.2-1.7,3.7-4c0.2-0.2,0.4-0.3,0.6-0.5c1.5-1.4,3.2-2.8,4.9-4c0.1,0,0.1-0.1,0.2-0.1c4.1-3.1,9.9-6.9,17.9-11
			c0.9-0.5,1.8-0.9,2.8-1.4c3.3-1.6,6.8-3.3,10.8-5c2.7-1.1,2.1-1.7-0.4-1.9c1.2-0.1,2.3-0.1,3.4-0.1
			C310.7,360.6,312.2,361.2,309,362.5z"/>
		
			<linearGradient id="SVGID_15_" gradientUnits="userSpaceOnUse" x1="297.2513" y1="451.0047" x2="310.6917" y2="395.2601" gradientTransform="matrix(1 0 0 -1 0 841.87)">
			<stop  offset="5.376345e-003" style="stop-color:#FFFFFF;stop-opacity:0"/>
			<stop  offset="1" style="stop-color:#EE7700"/>
		</linearGradient>
		<path class="st16" d="M340.3,341.3C340.3,341.3,340.2,341.3,340.3,341.3C340.2,341.4,340.2,341.4,340.3,341.3
			c-8.8,4-36,12.9-28.1,14.2c1.9,0.3,5,0.7,8.3,1.1c5.7,0.7,12.3,1.6,15.6,2.8c0,0,0,0,0.1,0c0.4,0.1,0.7,0.2,1.1,0.5l0,0
			c0.5,0.3,0.8,0.5,0.9,0.8l0,0c0.2,0.6-0.6,1.3-2.8,2.1c-4.5,1.6-12.4,5.3-20.9,10.4l0,0c-5.1,3.1-10.4,6.6-15.2,10.5
			c-7.8,6.2-14.6,13.1-18.1,20.1l0,0c-4,6-6.3,13.4-6.3,21.3c0,13,6.3,24.5,15.7,31c5.2,3.6,11.4,5.7,18,5.7c4.5,0,8.9-1,12.8-2.7
			c-6.8,3.5-14.5,5.4-22.7,5.4c-26.9,0-48.7-21-48.7-46.9c0-11,3.9-21.1,10.5-29.1l0,0c0.2-0.2,1.2-1.7,3.7-4
			c0.2-0.2,0.4-0.3,0.6-0.5c1.5-1.4,3.2-2.8,4.9-4c0.1,0,0.1-0.1,0.2-0.1c4.1-3.1,9.9-6.9,17.9-11c0.9-0.5,1.8-0.9,2.8-1.4
			c3.3-1.6,6.8-3.3,10.8-5c6.4-2.5-5.9-2.3-16.9-1.7c-2.2,0.1-3.3-0.2-3.2-0.9c0-0.1,0-0.2,0-0.2
			C282.5,356.9,301.3,348.8,340.3,341.3z"/>
		<path class="st3" d="M336.8,362.3v3.2c-0.5,0.3-1,0.6-1.7,0.9c-1.1,0.5-2.2,1-3.2,1.5v-3.8c1.3-0.5,2.4-1,3.4-1.3
			C335.9,362.7,336.4,362.5,336.8,362.3z"/>
		<path class="st3" d="M330.6,364.8v3.9c-0.8,0.4-1.6,0.8-2.4,1.2v-4C329,365.5,329.8,365.1,330.6,364.8z"/>
		<path class="st3" d="M324.3,367.8v4.1c-0.4,0.2-0.8,0.4-1.2,0.7v-4.1C323.5,368.2,323.9,368,324.3,367.8z"/>
	</g>
</g>
</svg>
