<?xml version="1.0" encoding="utf-8"?>
<!-- Generator: Adobe Illustrator 19.2.1, SVG Export Plug-In . SVG Version: 6.00 Build 0)  -->
<svg version="1.1" id="Layer_1" xmlns="http://www.w3.org/2000/svg" xmlns:xlink="http://www.w3.org/1999/xlink" x="0px" y="0px"
	 viewBox="0 0 595.3 841.9" style="enable-background:new 0 0 595.3 841.9;" xml:space="preserve">
<style type="text/css">
	.st0{fill:#383A35;}
	.st1{fill:url(#SVGID_1_);}
	.st2{fill:url(#SVGID_2_);}
	.st3{fill:url(#SVGID_3_);}
	.st4{opacity:0.59;fill:#FFFFFF;}
	.st5{fill:url(#SVGID_4_);}
	.st6{fill:url(#SVGID_5_);}
	.st7{fill:url(#SVGID_6_);}
	.st8{fill:url(#SVGID_7_);}
	.st9{fill:url(#SVGID_8_);}
	.st10{fill:url(#SVGID_9_);}
	.st11{opacity:0.58;fill:url(#SVGID_10_);}
	.st12{fill:url(#SVGID_11_);}
	.st13{opacity:0.58;fill:url(#SVGID_12_);}
	.st14{opacity:0.55;fill:#FFFDF3;}
	.st15{fill:url(#SVGID_13_);}
	.st16{opacity:0.32;fill:url(#SVGID_14_);}
	.st17{fill:url(#SVGID_15_);}
</style>
<g>
	<g>
		<path class="st0" d="M215,481.2c1,0,2,0.2,2.8,0.6c0.8,0.4,1.5,0.9,2,1.6c0.5,0.7,0.9,1.5,1.2,2.4c0.3,0.9,0.4,1.9,0.4,3
			c0,1.2-0.2,2.5-0.5,3.8c-0.3,1.3-0.9,2.5-1.7,3.6c-0.8,1.1-1.8,2-3.1,2.7s-2.9,1.1-4.7,1.1c-1.6,0-2.9-0.2-3.9-0.7
			c-1-0.4-1.8-1-2.4-1.8c-0.6-0.7-1-1.6-1.2-2.5c-0.2-0.9-0.3-1.9-0.3-2.9c0-1.2,0.1-2.5,0.2-3.8c0.1-1.3,0.3-2.6,0.5-3.9
			c0.2-1.3,0.6-2.6,1-3.8c0.4-1.2,0.9-2.3,1.6-3.3c0.7-1,1.5-1.9,2.4-2.6s2.1-1.2,3.4-1.6c1-0.3,2.1-0.5,3.3-0.7
			c1.2-0.2,2.3-0.4,3.4-0.5c0.2-0.1,0.4,0,0.5,0c0.1,0.1,0.2,0.2,0.2,0.5l0.4,2.5c0,0.2,0,0.4-0.1,0.5c-0.1,0.1-0.3,0.2-0.6,0.2
			l-4.7,0.8c-0.9,0.2-1.7,0.4-2.3,0.7c-0.7,0.3-1.2,0.7-1.7,1.2c-0.5,0.5-0.9,1.1-1.2,1.8c-0.3,0.7-0.6,1.6-0.8,2.7l0.1,0
			c0.9-0.6,1.8-1.1,2.8-1.3S214,481.2,215,481.2z M211.6,496.4c1.1,0,2-0.3,2.7-0.8c0.7-0.5,1.3-1.2,1.7-2c0.4-0.8,0.7-1.6,0.8-2.5
			c0.2-0.9,0.2-1.7,0.2-2.3c0-0.5-0.1-1-0.1-1.5c-0.1-0.5-0.3-0.9-0.6-1.3c-0.3-0.4-0.7-0.6-1.1-0.9c-0.5-0.2-1.1-0.3-1.9-0.3
			c-0.4,0-0.8,0-1.2,0.1c-0.4,0.1-0.8,0.2-1.2,0.3c-0.4,0.1-0.8,0.3-1.2,0.5c-0.4,0.2-0.8,0.5-1.1,0.8c-0.3,1.2-0.5,2.4-0.6,3.5
			c-0.1,1.1-0.1,1.8-0.1,2.3c0,0.6,0.1,1.1,0.2,1.6c0.1,0.5,0.3,0.9,0.6,1.3c0.3,0.4,0.7,0.7,1.2,0.9
			C210.3,496.3,210.9,496.4,211.6,496.4z"/>
		<path class="st0" d="M242.2,480c0.8,0,1.3,0.2,1.5,0.5c0.2,0.3,0.3,0.9,0.2,1.6l-2.4,16.7c0,0.3-0.1,0.5-0.2,0.5
			c-0.1,0.1-0.3,0.1-0.6,0.1h-2.7c-0.3,0-0.5,0-0.6-0.1c-0.1-0.1-0.1-0.3-0.1-0.5l2.1-15.2H234l-0.5,2.3c-0.5,2.5-0.9,4.6-1.4,6.3
			c-0.5,1.7-1,3-1.6,4.1c-0.6,1.1-1.3,1.9-2.2,2.4c-0.8,0.6-1.9,1-3.1,1.3c-0.3,0.1-0.6,0.1-0.7,0.1c-0.1,0-0.2-0.2-0.3-0.4
			l-0.6-2.2c-0.1-0.3-0.1-0.5,0-0.6c0.1-0.1,0.3-0.2,0.6-0.4c0.7-0.3,1.2-0.6,1.7-1c0.5-0.3,0.9-0.9,1.3-1.6c0.4-0.7,0.8-1.7,1.1-3
			c0.3-1.3,0.7-2.9,1.1-5l0.7-3.9c0.2-0.8,0.4-1.3,0.8-1.6c0.4-0.3,0.9-0.5,1.6-0.5H242.2z"/>
		<path class="st0" d="M257,496.3c0.2,0,0.6,0,1.2,0c0.5,0,1.2-0.1,1.8-0.2l2.2-15.4c0-0.3,0.1-0.4,0.2-0.5c0.1-0.1,0.3-0.1,0.6-0.1
			h2.8c0.2,0,0.4,0,0.5,0.1c0.1,0.1,0.1,0.2,0.1,0.5l-2.2,15.9c-0.1,0.9-0.4,1.6-0.9,2.1c-0.4,0.5-1.1,0.8-2,1
			c-0.3,0-0.7,0.1-1.1,0.1c-0.4,0.1-0.9,0.1-1.3,0.1c-0.5,0-0.9,0-1.3,0.1c-0.4,0-0.8,0-1.1,0c-1.7,0-3-0.2-4.1-0.5
			c-1.1-0.3-1.9-0.9-2.5-1.7c-0.6-0.8-0.9-1.7-1-3c-0.1-1.2-0.1-2.7,0.2-4.4l1.4-9.8c0-0.3,0.1-0.4,0.2-0.5c0.1-0.1,0.3-0.1,0.6-0.1
			h2.8c0.2,0,0.4,0,0.5,0.1c0.1,0.1,0.1,0.2,0.1,0.5l-1.4,9.9c-0.1,1-0.2,1.9-0.2,2.7c0,0.7,0.1,1.3,0.4,1.8c0.3,0.4,0.7,0.8,1.3,1
			C255.2,496.2,256,496.3,257,496.3z"/>
		<path class="st0" d="M280.1,483.5c-1,0-1.8,0.2-2.5,0.7c-0.7,0.5-1.2,1.1-1.6,1.9s-0.7,1.7-0.9,2.7c-0.2,1-0.3,2-0.3,3.1
			c0,1.3,0.3,2.3,0.8,3.1c0.6,0.8,1.6,1.2,3.1,1.2c0.8,0,1.6-0.1,2.4-0.3c0.8-0.2,1.5-0.4,2-0.6c0.3-0.1,0.5-0.1,0.5-0.1
			c0.1,0,0.2,0.2,0.2,0.4l0.9,2.2c0.2,0.4,0,0.7-0.4,0.9c-1.1,0.6-2.2,0.9-3.3,1.1c-1.2,0.2-2.2,0.2-3.1,0.2c-2.4,0-4.3-0.7-5.6-2
			c-1.3-1.3-2-3.3-2-6c0-1.9,0.2-3.6,0.7-5.1c0.4-1.5,1.1-2.9,1.9-3.9c0.8-1.1,1.8-1.9,3-2.5c1.2-0.6,2.5-0.9,3.9-0.9
			c1,0,2,0.1,3.1,0.3c1.1,0.2,2,0.5,2.7,0.9c0.2,0.1,0.3,0.2,0.3,0.4c0,0.1,0,0.3-0.1,0.6l-0.9,2.2c-0.1,0.3-0.4,0.4-1,0.3
			c-0.6-0.2-1.2-0.4-1.9-0.6C281.5,483.5,280.8,483.5,280.1,483.5z"/>
		<path class="st0" d="M293.4,499.5c-0.1,0.1-0.3,0.1-0.5,0.1H290c-0.2,0-0.4,0-0.5-0.1c-0.1-0.1-0.1-0.2-0.1-0.5l2.6-18.3
			c0-0.3,0.1-0.4,0.2-0.5c0.1-0.1,0.3-0.1,0.5-0.1h2.9c0.2,0,0.4,0,0.5,0.1c0.1,0.1,0.1,0.2,0.1,0.5l-1,6.8h2.2c0.7,0,1.4-0.2,2-0.5
			c0.6-0.3,1.2-1,1.7-2.1l1.9-4.4c0.1-0.2,0.2-0.4,0.3-0.4c0.1,0,0.2-0.1,0.3-0.1h3c0.2,0,0.3,0.1,0.4,0.2c0,0.1,0,0.3,0,0.4
			l-2.1,4.9c-0.3,0.8-0.6,1.5-1.1,2.1c-0.5,0.6-1.1,1.1-1.8,1.4L302,489c0.5,0.1,0.9,0.3,1.2,0.6c0.3,0.2,0.5,0.5,0.7,0.8
			c0.2,0.3,0.3,0.6,0.4,1c0.1,0.3,0.2,0.7,0.2,1.1l1,6.4c0,0.1,0,0.3-0.1,0.4c0,0.2-0.2,0.2-0.5,0.2h-3c-0.1,0-0.2,0-0.3-0.1
			c-0.1,0-0.2-0.2-0.3-0.4l-0.9-6c-0.1-0.8-0.5-1.4-1.1-1.8s-1.2-0.5-2-0.5h-2.6l-1.2,8.2C293.5,499.3,293.5,499.4,293.4,499.5z"/>
		<path class="st0" d="M318,500c-1.4,0-2.6-0.2-3.6-0.6c-0.9-0.4-1.7-0.9-2.3-1.5c-0.6-0.7-1-1.4-1.2-2.3c-0.2-0.9-0.4-1.8-0.4-2.8
			c0-1.9,0.2-3.6,0.6-5.2c0.4-1.6,1-3,1.8-4.2c0.8-1.2,1.9-2.1,3.2-2.8c1.3-0.7,2.9-1,4.7-1c0.8,0,1.9,0,3.1,0.1
			c1.2,0.1,2.6,0.3,4.1,0.8c0.4,0.1,0.7,0.3,0.7,0.5c0,0.2,0,0.4,0,0.7c-0.4,2.9-0.8,5.6-1.2,8.3s-0.7,5.3-1.1,8.1
			c0,0.3-0.2,0.6-0.6,0.7c-0.6,0.2-1.3,0.5-2,0.6c-0.7,0.2-1.4,0.3-2.1,0.4c-0.7,0.1-1.4,0.1-2.1,0.2C319.1,500,318.5,500,318,500z
			 M321,483.4c-0.7,0-1.5,0.1-2.2,0.4c-0.7,0.3-1.4,0.8-1.9,1.4c-0.6,0.7-1,1.6-1.4,2.7c-0.3,1.1-0.5,2.6-0.5,4.3
			c0,1.3,0.3,2.3,0.9,3c0.6,0.7,1.7,1,3.3,1c0.5,0,1.1,0,1.8-0.1c0.7-0.1,1.3-0.2,1.7-0.4c0.1-1.2,0.3-2.2,0.4-3.2
			c0.1-1,0.3-1.9,0.4-2.9c0.1-0.9,0.3-1.9,0.4-2.8c0.1-1,0.3-2,0.5-3.1c-0.5-0.1-1.1-0.2-1.7-0.3C322,483.4,321.5,483.4,321,483.4z"
			/>
		<path class="st0" d="M334.4,486.1c0.3-2,1.1-3.6,2.4-4.8c1.3-1.2,3.2-1.8,5.7-1.8c1.1,0,2.1,0.1,3,0.4c0.8,0.3,1.5,0.6,2,1
			c0.5,0.4,0.9,0.9,1.2,1.5c0.3,0.6,0.4,1.2,0.4,1.8c0,0.3,0,0.6-0.1,1c-0.1,0.4-0.2,0.8-0.4,1.2c-0.2,0.4-0.5,0.8-0.8,1.1
			s-0.8,0.7-1.4,0.9v0.2c1.2,0.4,2,1,2.5,1.7c0.5,0.7,0.7,1.6,0.7,2.6c0,1.1-0.2,2.1-0.7,3c-0.4,0.9-1.1,1.6-1.9,2.2
			c-0.8,0.6-1.7,1.1-2.8,1.4c-1.1,0.3-2.3,0.5-3.6,0.5c-1.3,0-2.7-0.1-4-0.4c-1.3-0.2-2.4-0.6-3.3-1c-0.2-0.1-0.4-0.3-0.4-0.4
			c-0.1-0.1-0.1-0.3,0-0.5L334.4,486.1z M342.1,483c-0.6,0-1.1,0.1-1.6,0.3c-0.4,0.2-0.8,0.4-1,0.7c-0.3,0.3-0.5,0.7-0.6,1.1
			c-0.2,0.4-0.3,0.8-0.3,1.2l-1.4,9.8c0.5,0.1,1.1,0.2,1.8,0.3c0.7,0.1,1.3,0.1,1.7,0.1c1.5,0,2.6-0.3,3.4-1
			c0.8-0.6,1.2-1.5,1.2-2.6c0-1.6-1.2-2.3-3.7-2.3h-0.7c-0.3,0-0.5,0-0.6-0.1c-0.1-0.1-0.2-0.2-0.1-0.5l0.2-1.6
			c0-0.3,0.2-0.6,0.4-0.6c0.2-0.1,0.5-0.1,0.9-0.2c1.1-0.1,1.9-0.3,2.4-0.8c0.5-0.5,0.8-1,0.8-1.6c0-0.2-0.1-0.5-0.2-0.7
			c-0.1-0.2-0.3-0.5-0.5-0.7c-0.2-0.2-0.5-0.4-0.9-0.5C343.1,483.1,342.6,483,342.1,483z"/>
		<path class="st0" d="M357.8,499.5c-0.1,0.1-0.3,0.1-0.5,0.1h-2.9c-0.2,0-0.4,0-0.5-0.1c-0.1-0.1-0.1-0.2-0.1-0.5l2.6-18.3
			c0-0.3,0.1-0.4,0.2-0.5c0.1-0.1,0.3-0.1,0.5-0.1h2.9c0.2,0,0.4,0,0.5,0.1s0.1,0.2,0.1,0.5l-1,6.8h2.2c0.7,0,1.4-0.2,2-0.5
			c0.6-0.3,1.2-1,1.7-2.1l1.9-4.4c0.1-0.2,0.2-0.4,0.3-0.4c0.1,0,0.2-0.1,0.3-0.1h3c0.2,0,0.3,0.1,0.4,0.2c0,0.1,0,0.3,0,0.4
			l-2.1,4.9c-0.3,0.8-0.6,1.5-1.1,2.1c-0.5,0.6-1.1,1.1-1.8,1.4l-0.1,0.1c0.5,0.1,0.9,0.3,1.2,0.6c0.3,0.2,0.5,0.5,0.7,0.8
			c0.2,0.3,0.3,0.6,0.4,1c0.1,0.3,0.2,0.7,0.2,1.1l1,6.4c0,0.1,0,0.3-0.1,0.4c0,0.2-0.2,0.2-0.5,0.2h-3c-0.1,0-0.2,0-0.3-0.1
			c-0.1,0-0.2-0.2-0.3-0.4l-0.9-6c-0.1-0.8-0.5-1.4-1.1-1.8c-0.6-0.4-1.2-0.5-2-0.5h-2.6l-1.2,8.2
			C358,499.3,357.9,499.4,357.8,499.5z"/>
		<path class="st0" d="M382.5,500c-1.4,0-2.6-0.2-3.6-0.6c-0.9-0.4-1.7-0.9-2.3-1.5c-0.6-0.7-1-1.4-1.2-2.3
			c-0.2-0.9-0.4-1.8-0.4-2.8c0-1.9,0.2-3.6,0.6-5.2c0.4-1.6,1-3,1.8-4.2c0.8-1.2,1.9-2.1,3.2-2.8c1.3-0.7,2.9-1,4.7-1
			c0.8,0,1.9,0,3.1,0.1c1.2,0.1,2.6,0.3,4.1,0.8c0.4,0.1,0.7,0.3,0.7,0.5c0,0.2,0,0.4,0,0.7c-0.4,2.9-0.8,5.6-1.2,8.3
			s-0.7,5.3-1.1,8.1c0,0.3-0.2,0.6-0.6,0.7c-0.6,0.2-1.3,0.5-2,0.6c-0.7,0.2-1.4,0.3-2.1,0.4c-0.7,0.1-1.4,0.1-2.1,0.2
			C383.6,500,383,500,382.5,500z M385.4,483.4c-0.7,0-1.5,0.1-2.2,0.4c-0.7,0.3-1.4,0.8-1.9,1.4c-0.6,0.7-1,1.6-1.4,2.7
			c-0.3,1.1-0.5,2.6-0.5,4.3c0,1.3,0.3,2.3,0.9,3c0.6,0.7,1.7,1,3.3,1c0.5,0,1.1,0,1.8-0.1c0.7-0.1,1.3-0.2,1.7-0.4
			c0.1-1.2,0.3-2.2,0.4-3.2c0.1-1,0.3-1.9,0.4-2.9c0.1-0.9,0.3-1.9,0.4-2.8c0.1-1,0.3-2,0.5-3.1c-0.5-0.1-1.1-0.2-1.7-0.3
			C386.5,483.4,385.9,483.4,385.4,483.4z"/>
	</g>
	<g>
		<linearGradient id="SVGID_1_" gradientUnits="userSpaceOnUse" x1="258.933" y1="446.912" x2="346.8463" y2="368.9137">
			<stop  offset="0" style="stop-color:#FFB547"/>
			<stop  offset="0.4839" style="stop-color:#FFCE00"/>
			<stop  offset="1" style="stop-color:#FCE444"/>
		</linearGradient>
		<path class="st1" d="M340.3,341.3C340.3,341.3,340.2,341.3,340.3,341.3C340.2,341.4,340.2,341.4,340.3,341.3
			c-8.8,4-36,12.9-28.1,14.2c1.9,0.3,5,0.7,8.3,1.1c5.7,0.7,12.3,1.6,15.6,2.8c0,0,0,0,0.1,0c0.4,0.1,0.7,0.2,1.1,0.5c0,0,0,0,0,0
			c0.5,0.3,0.8,0.5,0.9,0.8v0c0.2,0.6-0.6,1.3-2.8,2.1c-4.5,1.6-12.4,5.3-20.9,10.4c0,0,0,0,0,0c-5.1,3.1-10.4,6.6-15.2,10.5
			c-7.8,6.2-14.6,13.1-18.1,20.1c0,0,0,0,0,0c-4,6-6.3,13.4-6.3,21.3c0,13,6.3,24.5,15.7,31c5.2,3.6,11.4,5.7,18,5.7
			c4.5,0,8.9-1,12.8-2.7c-6.8,3.5-14.5,5.4-22.7,5.4c-26.9,0-48.7-21-48.7-46.9c0-11,3.9-21.1,10.5-29.1c0,0,0,0,0,0
			c0.2-0.2,1.2-1.7,3.7-4c0.2-0.2,0.4-0.3,0.6-0.5c1.5-1.4,3.2-2.8,4.9-4c0.1,0,0.1-0.1,0.2-0.1c4.1-3.1,9.9-6.9,17.9-11
			c0.9-0.5,1.8-0.9,2.8-1.4c3.3-1.6,6.8-3.3,10.8-5c6.4-2.5-5.9-2.3-16.9-1.7c-2.2,0.1-3.3-0.2-3.2-0.9c0-0.1,0-0.2,0-0.2
			C282.5,356.9,301.3,348.8,340.3,341.3z"/>
		<linearGradient id="SVGID_2_" gradientUnits="userSpaceOnUse" x1="277.7407" y1="452.6519" x2="364.993" y2="371.3486">
			<stop  offset="0" style="stop-color:#D4451D"/>
			<stop  offset="1.268909e-002" style="stop-color:#D64B20"/>
			<stop  offset="9.599930e-002" style="stop-color:#E36F2F"/>
			<stop  offset="0.1802" style="stop-color:#EC8A3B"/>
			<stop  offset="0.2647" style="stop-color:#F39E43"/>
			<stop  offset="0.3495" style="stop-color:#F8AA48"/>
			<stop  offset="0.4355" style="stop-color:#F9AE4A"/>
			<stop  offset="1" style="stop-color:#D4451D"/>
		</linearGradient>
		<path class="st2" d="M342.3,425.1c0,11.4-4.8,21.6-12.3,28.3c0,0,0,0-0.1,0.1c-2.6,2.3-5.5,4.2-8.6,5.6c-4,1.8-8.3,2.7-12.8,2.7
			c-6.6,0-12.8-2.1-18-5.7c-9.5-6.5-15.7-17.9-15.7-31c0-8,2.3-15.3,6.3-21.3c0,0,0,0,0,0c3.5-7,10.3-13.9,18.1-20.1
			c4.9-3.9,10.2-7.4,15.2-10.5c0,0,0,0,0,0c8.5-5.1,16.3-8.9,20.9-10.4c2.3-0.8,3.1-1.5,2.8-2.1c1.2,1.5,1.1,3.8-3,5.7
			c-6.1,2.8-11.5,5.7-16.3,8.5h0c-5.9,3.5-10.8,7-15,10.3c-2.3,1.8-4.3,3.5-6.1,5.2h0c-11.1,10.2-14.5,18-14.7,18.4c0,0,0,0,0,0
			c-2.7,5.1-4.4,10.7-4.4,16.2c0,13.9,8.1,25.8,19.4,30.4c3.3,1.3,6.9,2.1,10.6,2.1c16.6,0,30-14.6,30-32.5c0-12.4-4.7-25-13-31.7
			C335.6,399.8,342.3,411.6,342.3,425.1z"/>
		<linearGradient id="SVGID_3_" gradientUnits="userSpaceOnUse" x1="315.7022" y1="409.3616" x2="342.3626" y2="420.819">
			<stop  offset="5.376344e-003" style="stop-color:#FFFFFF;stop-opacity:0"/>
			<stop  offset="1" style="stop-color:#EE7700"/>
		</linearGradient>
		<path class="st3" d="M342.3,425.1c0,11.4-4.8,21.6-12.3,28.3c0,0,0,0-0.1,0.1c-2.6,2.3-5.5,4.2-8.6,5.6c-4,1.8-8.3,2.7-12.8,2.7
			c-6.6,0-12.8-2.1-18-5.7c-9.5-6.5-15.7-17.9-15.7-31c0-8,2.3-15.3,6.3-21.3c0,0,0,0,0,0c3.5-7,10.3-13.9,18.1-20.1
			c4.9-3.9,10.2-7.4,15.2-10.5c0,0,0,0,0,0c8.5-5.1,16.3-8.9,20.9-10.4c2.3-0.8,3.1-1.5,2.8-2.1c1.2,1.5,1.1,3.8-3,5.7
			c-6.1,2.8-11.5,5.7-16.3,8.5h0c-5.9,3.5-10.8,7-15,10.3c-2.3,1.8-4.3,3.5-6.1,5.2h0c-11.1,10.2-14.5,18-14.7,18.4c0,0,0,0,0,0
			c-2.7,5.1-4.4,10.7-4.4,16.2c0,13.9,8.1,25.8,19.4,30.4c3.3,1.3,6.9,2.1,10.6,2.1c16.6,0,30-14.6,30-32.5c0-12.4-4.7-25-13-31.7
			C335.6,399.8,342.3,411.6,342.3,425.1z"/>
		<path class="st4" d="M323.1,368.4c0.4-0.2,0.8-0.4,1.2-0.6v4.1c-0.4,0.2-0.8,0.4-1.2,0.7V368.4z"/>
		<path class="st4" d="M330.6,364.8v3.9c-0.8,0.4-1.6,0.8-2.4,1.2v-4C329,365.5,329.8,365.1,330.6,364.8z"/>
		<path class="st4" d="M336.8,362.3v3.2c-0.5,0.3-1,0.6-1.7,0.9c-1.1,0.5-2.2,1-3.2,1.5v-3.8c1.3-0.5,2.4-1,3.4-1.3
			C335.9,362.7,336.4,362.5,336.8,362.3z"/>
		<linearGradient id="SVGID_4_" gradientUnits="userSpaceOnUse" x1="314.2234" y1="425.4513" x2="341.1906" y2="437.0405">
			<stop  offset="0" style="stop-color:#FFFFFF;stop-opacity:0.6"/>
			<stop  offset="1" style="stop-color:#FFB547"/>
		</linearGradient>
		<path class="st5" d="M342.3,427.2c0,18-13.4,32.5-30,32.5c-0.4,0-0.8,0-1.2,0c16.1-0.6,28.9-14.9,28.9-32.5c0-12.4-4.7-25-13-31.7
			c3.9,2.4,7.2,5.7,9.9,9.6C340.5,411.5,342.3,419.4,342.3,427.2z"/>
		<linearGradient id="SVGID_5_" gradientUnits="userSpaceOnUse" x1="296.0273" y1="433.8166" x2="341.9669" y2="405.724">
			<stop  offset="0" style="stop-color:#EE7700"/>
			<stop  offset="0.4839" style="stop-color:#FFCE00"/>
			<stop  offset="1" style="stop-color:#FCE444"/>
		</linearGradient>
		<path class="st6" d="M338.5,425.1c0,18-13.4,32.5-30,32.5c-3.7,0-7.3-0.7-10.6-2.1c15.8-3.1,27.7-18.1,27.7-36.1
			c0-12.9-6.1-24.2-15.4-30.7c0.6-0.1,1.2-0.1,1.8-0.1c4.8,0.6,9.4,2.2,13.4,4.8C333.9,400.1,338.5,412.7,338.5,425.1z"/>
		<linearGradient id="SVGID_6_" gradientUnits="userSpaceOnUse" x1="319.6056" y1="418.9102" x2="291.6232" y2="449.096">
			<stop  offset="5.376344e-003" style="stop-color:#FFFFFF;stop-opacity:0"/>
			<stop  offset="1" style="stop-color:#A32A29"/>
		</linearGradient>
		<path class="st7" d="M338.5,425.1c0,18-13.4,32.5-30,32.5c-3.7,0-7.3-0.7-10.6-2.1c15.8-3.1,27.7-18.1,27.7-36.1
			c0-12.9-6.1-24.2-15.4-30.7c0.6-0.1,1.2-0.1,1.8-0.1c4.8,0.6,9.4,2.2,13.4,4.8C333.9,400.1,338.5,412.7,338.5,425.1z"/>
		<linearGradient id="SVGID_7_" gradientUnits="userSpaceOnUse" x1="326.501" y1="410.1728" x2="318.7893" y2="389.241">
			<stop  offset="5.376344e-003" style="stop-color:#FFFFFF;stop-opacity:0"/>
			<stop  offset="1" style="stop-color:#A32A29"/>
		</linearGradient>
		<path class="st8" d="M329.5,396.8c-2.3,1.6-4.6,3.3-6.8,5c-0.2,0.1-0.4,0.3-0.6,0.4c-2.7-5.5-6.6-10.1-11.4-13.5
			c0.6-0.1,1.2-0.1,1.8-0.1c4.8,0.6,9.4,2.2,13.4,4.8C327.2,394.4,328.4,395.6,329.5,396.8z"/>
		<linearGradient id="SVGID_8_" gradientUnits="userSpaceOnUse" x1="259.9075" y1="455.7639" x2="327.3298" y2="290.1827">
			<stop  offset="0" style="stop-color:#FFB547"/>
			<stop  offset="1" style="stop-color:#FFCE00"/>
		</linearGradient>
		<path class="st9" d="M281.1,403.8C281.1,403.8,281,403.8,281.1,403.8"/>
		<linearGradient id="SVGID_9_" gradientUnits="userSpaceOnUse" x1="300.3065" y1="364.6499" x2="279.8154" y2="364.3194">
			<stop  offset="0" style="stop-color:#C24D00"/>
			<stop  offset="0.1907" style="stop-color:#D56F1A"/>
			<stop  offset="0.3905" style="stop-color:#E58A2F"/>
			<stop  offset="0.5921" style="stop-color:#F09E3E"/>
			<stop  offset="0.7948" style="stop-color:#F7AA47"/>
			<stop  offset="1" style="stop-color:#F9AE4A"/>
		</linearGradient>
		<path class="st10" d="M301.3,362.5c-3.9,1.7-7.5,3.4-10.8,5c-1,0.5-1.9,0.9-2.8,1.4c1.9-1.3,2.7-3.1-3.9-4.1
			c-3.6-0.5-2.7-4.1-2.5-4.9c-0.2,0.7,0.9,1.1,3.2,0.9C295.3,360.2,307.7,359.9,301.3,362.5z"/>
		<linearGradient id="SVGID_10_" gradientUnits="userSpaceOnUse" x1="289.9131" y1="362.6552" x2="299.3371" y2="366.694">
			<stop  offset="5.376344e-003" style="stop-color:#FFFFFF;stop-opacity:0"/>
			<stop  offset="1" style="stop-color:#A32A29"/>
		</linearGradient>
		<path class="st11" d="M301.3,362.5c-3.9,1.7-7.5,3.4-10.8,5c-1,0.5-1.9,0.9-2.8,1.4c1.9-1.3,2.7-3.1-3.9-4.1
			c-3.6-0.5-2.7-4.1-2.5-4.9c-0.2,0.7,0.9,1.1,3.2,0.9C295.3,360.2,307.7,359.9,301.3,362.5z"/>
		<linearGradient id="SVGID_11_" gradientUnits="userSpaceOnUse" x1="311.8686" y1="357.5762" x2="333.241" y2="344.7968">
			<stop  offset="0" style="stop-color:#C24D00"/>
			<stop  offset="0.1907" style="stop-color:#D56F1A"/>
			<stop  offset="0.3905" style="stop-color:#E58A2F"/>
			<stop  offset="0.5921" style="stop-color:#F09E3E"/>
			<stop  offset="0.7948" style="stop-color:#F7AA47"/>
			<stop  offset="1" style="stop-color:#F9AE4A"/>
		</linearGradient>
		<path class="st12" d="M340.2,341.4c-1.3,0.7-15.3,8.4-19.7,15.3c-3.3-0.4-6.4-0.8-8.3-1.1C304.3,354.2,331.5,345.4,340.2,341.4z"
			/>
		<linearGradient id="SVGID_12_" gradientUnits="userSpaceOnUse" x1="313.0064" y1="356.8958" x2="323.1991" y2="350.8013">
			<stop  offset="0" style="stop-color:#A32A29"/>
			<stop  offset="0.9946" style="stop-color:#FFFFFF;stop-opacity:0"/>
		</linearGradient>
		<path class="st13" d="M340.2,341.4c-1.3,0.7-15.3,8.4-19.7,15.3c-3.3-0.4-6.4-0.8-8.3-1.1C304.3,354.2,331.5,345.4,340.2,341.4z"
			/>
		<path class="st14" d="M330,362.8c-4.5,1.6-12.4,5.3-20.9,10.4c0,0,0,0,0,0c-5.1,3.1-10.4,6.6-15.2,10.5c-3.5,2.8-6.8,5.7-9.7,8.7
			c4-6.4,11.7-12.7,20.5-18.3c5.6-3.5,11.6-6.8,17.3-9.5c0,0,0,0,0,0c3.5-1.7,6.9-3.2,10.1-4.6c0.4,0.2,0.6,0.5,0.7,0.7v0
			C333.1,361.3,332.3,362,330,362.8z"/>
		<linearGradient id="SVGID_13_" gradientUnits="userSpaceOnUse" x1="310.8735" y1="350.9213" x2="293.4671" y2="340.3452">
			<stop  offset="0" style="stop-color:#FFB547;stop-opacity:0.6"/>
			<stop  offset="1" style="stop-color:#FFB547"/>
		</linearGradient>
		<path class="st15" d="M340.3,341.3C340.3,341.3,340.2,341.3,340.3,341.3C340.2,341.4,340.2,341.4,340.3,341.3
			c-3.3,1.5-8.9,3.6-14.4,5.8c-21.4,5.5-32.1,10.5-33,12.7c0,0,0,0.1,0,0.2c0,0.2,0,0.4,0.2,0.5c-2.7,0.1-5.7,0.2-8.6,0.4
			c-2.2,0.1-3.3-0.2-3.2-0.9c0-0.1,0-0.2,0-0.2C282.5,356.9,301.3,348.8,340.3,341.3z"/>
		<linearGradient id="SVGID_14_" gradientUnits="userSpaceOnUse" x1="276.8976" y1="433.6416" x2="343.6588" y2="331.1862">
			<stop  offset="0" style="stop-color:#FFFFFF"/>
			<stop  offset="1" style="stop-color:#FFEDD4"/>
		</linearGradient>
		<path class="st16" d="M309,362.5c-3.9,1.7-7.5,3.4-10.8,5c-1,0.5-1.9,0.9-2.8,1.4c-7.9,4.1-13.7,7.9-17.9,11
			c-0.1,0-0.1,0.1-0.2,0.1c-1.7,1.2-3.3,2.6-4.9,4c-0.2,0.2-0.4,0.4-0.6,0.5c-2.5,2.3-3.5,3.7-3.7,4c0,0,0,0,0,0
			c-6.6,8-10.5,18.1-10.5,29.1c0,24,18.7,43.8,42.9,46.5c-0.9,0.1-1.7,0.2-2.6,0.2c-25.4-1.6-45.5-21.9-45.5-46.8
			c0-11,3.9-21.1,10.5-29.1c0,0,0,0,0,0c0.2-0.2,1.2-1.7,3.7-4c0.2-0.2,0.4-0.3,0.6-0.5c1.5-1.4,3.2-2.8,4.9-4
			c0.1,0,0.1-0.1,0.2-0.1c4.1-3.1,9.9-6.9,17.9-11c0.9-0.5,1.8-0.9,2.8-1.4c3.3-1.6,6.8-3.3,10.8-5c2.7-1.1,2.1-1.7-0.4-1.9
			c1.2-0.1,2.3-0.1,3.4-0.1C310.7,360.6,312.2,361.2,309,362.5z"/>
		<linearGradient id="SVGID_15_" gradientUnits="userSpaceOnUse" x1="297.2219" y1="390.8824" x2="310.6623" y2="446.627">
			<stop  offset="5.376344e-003" style="stop-color:#FFFFFF;stop-opacity:0"/>
			<stop  offset="1" style="stop-color:#EE7700"/>
		</linearGradient>
		<path class="st17" d="M340.3,341.3C340.3,341.3,340.2,341.3,340.3,341.3C340.2,341.4,340.2,341.4,340.3,341.3
			c-8.8,4-36,12.9-28.1,14.2c1.9,0.3,5,0.7,8.3,1.1c5.7,0.7,12.3,1.6,15.6,2.8c0,0,0,0,0.1,0c0.4,0.1,0.7,0.2,1.1,0.5c0,0,0,0,0,0
			c0.5,0.3,0.8,0.5,0.9,0.8v0c0.2,0.6-0.6,1.3-2.8,2.1c-4.5,1.6-12.4,5.3-20.9,10.4c0,0,0,0,0,0c-5.1,3.1-10.4,6.6-15.2,10.5
			c-7.8,6.2-14.6,13.1-18.1,20.1c0,0,0,0,0,0c-4,6-6.3,13.4-6.3,21.3c0,13,6.3,24.5,15.7,31c5.2,3.6,11.4,5.7,18,5.7
			c4.5,0,8.9-1,12.8-2.7c-6.8,3.5-14.5,5.4-22.7,5.4c-26.9,0-48.7-21-48.7-46.9c0-11,3.9-21.1,10.5-29.1c0,0,0,0,0,0
			c0.2-0.2,1.2-1.7,3.7-4c0.2-0.2,0.4-0.3,0.6-0.5c1.5-1.4,3.2-2.8,4.9-4c0.1,0,0.1-0.1,0.2-0.1c4.1-3.1,9.9-6.9,17.9-11
			c0.9-0.5,1.8-0.9,2.8-1.4c3.3-1.6,6.8-3.3,10.8-5c6.4-2.5-5.9-2.3-16.9-1.7c-2.2,0.1-3.3-0.2-3.2-0.9c0-0.1,0-0.2,0-0.2
			C282.5,356.9,301.3,348.8,340.3,341.3z"/>
		<path class="st4" d="M336.8,362.3v3.2c-0.5,0.3-1,0.6-1.7,0.9c-1.1,0.5-2.2,1-3.2,1.5v-3.8c1.3-0.5,2.4-1,3.4-1.3
			C335.9,362.7,336.4,362.5,336.8,362.3z"/>
		<path class="st4" d="M330.6,364.8v3.9c-0.8,0.4-1.6,0.8-2.4,1.2v-4C329,365.5,329.8,365.1,330.6,364.8z"/>
		<path class="st4" d="M324.3,367.8v4.1c-0.4,0.2-0.8,0.4-1.2,0.7v-4.1C323.5,368.2,323.9,368,324.3,367.8z"/>
	</g>
</g>
</svg>
