<?xml version="1.0" encoding="utf-8"?>
<!-- Generator: Adobe Illustrator 16.2.0, SVG Export Plug-In . SVG Version: 6.00 Build 0)  -->
<!DOCTYPE svg PUBLIC "-//W3C//DTD SVG 1.1//EN" "http://www.w3.org/Graphics/SVG/1.1/DTD/svg11.dtd">
<svg version="1.1" id="Layer_1" xmlns="http://www.w3.org/2000/svg" xmlns:xlink="http://www.w3.org/1999/xlink" x="0px" y="0px"
	 width="493.184px" height="229.093px" viewBox="0 0 493.184 229.093" enable-background="new 0 0 493.184 229.093"
	 xml:space="preserve">
<g>
	<path fill="#FFFFFF" d="M220.692,76.197c1.9-2.8,5.7-5.8,10.4-5.8c2.4,0,3.5,0.2,5.1,0.5l1.2-6.7c-1-0.3-2.7-0.7-5.1-0.7
		c-5.6,0-9.6,3.5-11.6,6.5v-5.6h-8v41.798h8V76.197z"/>
	<path fill="#FFFFFF" d="M259.991,107.096c6.301,0,11.6-1.2,13.9-2l-1.301-6.3c-2.6,0.6-7.799,1.7-10.799,1.7
		c-8.1,0-14.2-1.8-14.4-13.2h27.5v-2.9c0-13.5-4.801-20.999-16-20.999c-11.1,0-19.499,5.7-19.499,22.599
		C239.392,102.197,247.392,107.096,259.991,107.096z M257.991,69.198c5.9,0,8.6,5,8.6,12.5h-18.999
		C248.191,73.498,252.292,69.198,257.991,69.198z"/>
	<path fill="#FFFFFF" d="M300.09,106.997c2.799,0,6.299-0.8,8.199-1.4l-1.1-6.6c-0.701,0.2-4.801,1.1-7.301,1.1
		c-5.5,0-6.998-0.8-6.998-6V70.797h12.998v-6.399h-12.998v-8.6h-7.9v8.6h-6.1v6.3h6.1v23.399
		C284.991,106.997,292.19,106.997,300.09,106.997z"/>
	<path fill="#FFFFFF" d="M345.989,97.097V75.197c0-8.6-5.5-11.799-15.801-11.799c-6.299,0-11.699,1.6-14.398,2.8l1.6,6
		c2.4-0.6,7-1.9,11-1.9c6.699,0,9.799,1.2,9.799,7v4.7l-9.199,0.2c-7.299,0.1-16.6,2.3-16.6,12.6c0,7.9,4.701,12,12.6,12
		c7.199,0,11.5-3.6,13.801-5.2c0.699,3.7,4.998,5,8.898,5c0.6,0,1.1,0,1.701-0.1l0.398-6.2
		C347.788,100.197,345.989,99.697,345.989,97.097z M338.188,96.797c-1.6,0.7-6.799,3.7-11.199,3.7c-4,0-6.699-1.6-6.699-6.3
		c0-3.8,3.299-6.4,9-6.6l8.898-0.4V96.797L338.188,96.797z"/>
	<rect x="357.688" y="64.398" fill="#FFFFFF" width="8" height="41.798"/>
	<polygon fill="#FFFFFF" points="367.688,51.398 361.588,45.398 355.688,51.398 361.588,57.598 	"/>
	<rect x="376.387" y="48.499" fill="#FFFFFF" width="8" height="57.698"/>
	<path fill="#FFFFFF" d="M218.493,135.796c0-2.6,2.1-5,7.1-5c4.4,0,7.6,0.9,10.2,1.5l1.4-6.1c-2.4-0.801-6.6-1.9-11.299-1.9
		c-8.4,0-15.2,4.1-15.2,12c0,14.5,21,11.6,21,19.699c0,3.1-3,5.4-9.5,5.4c-3.5,0-7.7-0.9-11.2-1.5l-1.1,6.299
		c3,0.9,7.399,1.801,13.099,1.801c7,0,16.5-2.5,16.5-12.5C239.292,141.694,218.493,143.995,218.493,135.796z"/>
	<polygon fill="#FFFFFF" points="264.292,153.794 261.991,160.896 259.792,153.694 251.292,125.296 242.692,125.296 
		256.391,167.095 259.792,167.095 254.092,183.894 261.692,183.894 282.19,125.296 274.09,125.296 	"/>
	<path fill="#FFFFFF" d="M293.889,135.796c0-2.6,2.102-5,7.102-5c4.398,0,7.6,0.9,10.199,1.5l1.4-6.1
		c-2.4-0.801-6.602-1.9-11.301-1.9c-8.398,0-15.199,4.1-15.199,12c0,14.5,21,11.6,21,19.699c0,3.1-3,5.4-9.5,5.4
		c-3.5,0-7.699-0.9-11.199-1.5l-1.102,6.299c3,0.9,7.4,1.801,13.1,1.801c7,0,16.5-2.5,16.5-12.5
		C314.69,141.694,293.889,143.995,293.889,135.796z"/>
	<path fill="#FFFFFF" d="M339.588,160.995c-5.5,0-7-0.801-7-6v-23.299h13v-6.301h-13v-8.6h-7.898v8.6h-6.102v6.301h6.102v23.398
		c0,12.799,7.199,12.799,15.1,12.799c2.799,0,6.299-0.799,8.199-1.398l-1.1-6.6C346.188,160.194,342.088,160.995,339.588,160.995z"
		/>
	<path fill="#FFFFFF" d="M370.887,124.196c-11.1,0-19.498,5.699-19.498,22.6c0,16.199,7.998,21.098,20.598,21.098
		c6.301,0,11.6-1.199,13.9-2l-1.301-6.299c-2.6,0.6-7.799,1.699-10.799,1.699c-8.1,0-14.199-1.799-14.4-13.199h27.5v-2.799
		C386.788,131.696,381.987,124.196,370.887,124.196z M359.489,142.495c0.6-8.199,4.699-12.5,10.398-12.5c5.9,0,8.6,5,8.6,12.5
		H359.489z"/>
	<path fill="#FFFFFF" d="M442.985,124.296c-6.299,0-11.5,3.5-14.799,6.199c-1.6-3.6-5.1-6.199-11.5-6.199c-5.1,0-10.1,3-13.5,5.699
		v-4.699h-8v41.799h8v-31.398c3.1-2.102,7.5-4.4,11.1-4.4c6.6,0,7.5,4,7.5,10.199v25.5h7.9v-26.799c0-1.5-0.1-3.201-0.4-4.701
		c3.199-2.1,7.299-4.299,11.4-4.299c6.5,0,7.6,4.1,7.6,10.199v25.498h8v-26.498C456.084,133.296,455.584,124.296,442.985,124.296z"
		/>
	<path fill="#FFFFFF" d="M472.184,135.796c0-2.6,2.1-5,7.1-5c4.4,0,7.6,0.9,10.199,1.5l1.4-6.1c-2.4-0.801-6.6-1.9-11.299-1.9
		c-8.4,0-15.199,4.1-15.199,12c0,14.5,20.998,11.6,20.998,19.699c0,3.1-3,5.4-9.5,5.4c-3.5,0-7.699-0.9-11.199-1.5l-1.1,6.299
		c3,0.9,7.4,1.801,13.1,1.801c7,0,16.5-2.5,16.5-12.5C493.084,141.694,472.184,143.995,472.184,135.796z"/>
	<path fill="#FFFFFF" d="M149.695,174.595c17.2,0,31.199-14,31.199-31.199c0-13.5-8.6-25-20.6-29.299c0.4-1.8,0.6-3.6,0.6-5.5
		c0-14.299-11.6-25.999-25.999-25.999h-5h-15.299L88.797,37.899l-55.798,96.596h14l7-12.099l16-27.799h35.099v79.898h44.599V174.595
		z M117.196,122.496v-11.2l6.5,11.2H117.196z M168.794,143.495c0,10.5-8.6,19.1-19.1,19.1h-32.599v-28h17.7
		c8.1,0,15.299-3.699,20-9.498C162.895,127.396,168.794,134.696,168.794,143.495z M129.896,94.697h5c7.7,0,13.899,6.2,13.899,13.899
		c0,6.8-4.9,12.4-11.3,13.6l-15.899-27.499H129.896z M78.297,80.297l10.5-18.2l11.8,20.5H76.897L78.297,80.297z"/>
	<path fill="#FFFFFF" d="M114.496,217.093C57.998,217.093,12,171.095,12,114.596C12,58.098,57.998,12.1,114.496,12.1
		c33.599,0,65.098,16.5,84.297,44.199l9.899-6.9C187.293,18.5,152.095,0,114.496,0C51.298,0,0,51.398,0,114.496
		c0,63.198,51.398,114.597,114.496,114.597c37.599,0,72.797-18.5,94.197-49.398l-9.899-6.9
		C179.694,200.593,148.095,217.093,114.496,217.093z"/>
</g>
</svg>
