<?xml version="1.0" encoding="utf-8"?>
<!-- Generator: Adobe Illustrator 16.2.0, SVG Export Plug-In . SVG Version: 6.00 Build 0)  -->
<!DOCTYPE svg PUBLIC "-//W3C//DTD SVG 1.1//EN" "http://www.w3.org/Graphics/SVG/1.1/DTD/svg11.dtd">
<svg version="1.1" id="Слой_1" xmlns="http://www.w3.org/2000/svg" xmlns:xlink="http://www.w3.org/1999/xlink" x="0px" y="0px"
	 width="36.133px" height="36.139px" viewBox="0 0 36.133 36.139" enable-background="new 0 0 36.133 36.139" xml:space="preserve">
<g>
	<path fill="#FFFFFF" d="M34.056,31.319l-8.62-8.619l-1.379-1.379c1.656-2.236,2.556-4.946,2.556-7.763
		c0-3.488-1.358-6.768-3.825-9.234C20.321,1.858,17.041,0.5,13.553,0.5S6.785,1.858,4.319,4.325C1.855,6.788,0.5,10.068,0.5,13.559
		c0,3.492,1.356,6.772,3.819,9.234c2.466,2.467,5.746,3.826,9.234,3.826c2.817,0,5.526-0.901,7.762-2.557l1.378,1.378l8.62,8.62
		l1.371,1.371l2.74-2.741L34.056,31.319z M21.117,20.463l-0.315,0.344l-0.345,0.317c-1.887,1.726-4.339,2.677-6.904,2.677
		c-2.736,0-5.307-1.066-7.241-3c-1.931-1.931-2.994-4.503-2.994-7.242c0-2.739,1.063-5.31,2.994-7.241c1.934-1.935,4.505-3,7.241-3
		c2.735,0,5.307,1.065,7.242,3c1.935,1.934,2.999,4.506,2.999,7.241C23.794,16.124,22.843,18.576,21.117,20.463"/>
	<path fill="#FFFFFF" d="M34.056,31.319l-8.62-8.619l-1.379-1.379c1.656-2.236,2.556-4.946,2.556-7.763
		c0-3.488-1.358-6.768-3.825-9.234C20.321,1.858,17.041,0.5,13.553,0.5S6.785,1.858,4.319,4.325C1.855,6.788,0.5,10.068,0.5,13.559
		c0,3.492,1.356,6.772,3.819,9.234c2.466,2.467,5.746,3.826,9.234,3.826c2.817,0,5.526-0.901,7.762-2.557l1.378,1.378l8.62,8.62
		l1.371,1.371l2.74-2.741L34.056,31.319z M21.117,20.463l-0.315,0.344l-0.345,0.317c-1.887,1.726-4.339,2.677-6.904,2.677
		c-2.736,0-5.307-1.066-7.241-3c-1.931-1.931-2.994-4.503-2.994-7.242c0-2.739,1.063-5.31,2.994-7.241c1.934-1.935,4.505-3,7.241-3
		c2.735,0,5.307,1.065,7.242,3c1.935,1.934,2.999,4.506,2.999,7.241C23.794,16.124,22.843,18.576,21.117,20.463z"/>
</g>
</svg>
